# xmcd
#
# Track frame offsets:
#	150
#	22482
#	42397
#	71560
#	94634
#	126437
#	142340
#	159232
#	179754
#	207802
#	234850
#	270970
#
# Disc length: 3980 seconds
# Revision: 0
# Processed by: cddbd v1.5.2PL0 Copyright (c) Steve Scherf et al.
# Submitted via: dBpowerAMP V12.0
#
DISCID=af0f8a0c
DTITLE=Lynyrd Skynyrd - The Ritz- Tribute Tour 1987 - NY - Sept '88
DYEAR=2016
DGENRE=Rock-Southern
TTITLE0=Workin' For MCA
TTITLE1=I Ain't The One
TTITLE2=Saturday Night Special
TTITLE3=The Needle And The Spoon
TTITLE4=That Smell
TTITLE5=The Ballad Of Curtis Lowe
TTITLE6=Things Goin' On
TTITLE7=Swamp Music
TTITLE8=I Know A Little
TTITLE9=Gimme Three Steps
TTITLE10=They Call Me The Breeze
TTITLE11=What's Your Name
EXTD=
EXTT0=
EXTT1=
EXTT2=
EXTT3=
EXTT4=
EXTT5=
EXTT6=
EXTT7=
EXTT8=
EXTT9=
EXTT10=
EXTT11=
PLAYORDER=
